# xmcd
#
# Track frame offsets:
#	150
#	17010
#	39060
#	51860
#	76452
#	96175
#	110882
#	129605
#	150272
#	163037
#
# Disc length: 2284 seconds
# Revision: 0
# Processed by: cddbd v1.5.2PL0 Copyright (c) Steve Scherf et al.
# Submitted via: dBpowerAMP V12.0
#
DISCID=7308ea0a
DTITLE=The Mollys - Tidings of Comfort and Joy
DYEAR=1900
DGENRE=
TTITLE0=Rosie
TTITLE1=Old Tramp Steamer
TTITLE2=Finnegan's Wake
TTITLE3=Johnny Has Gone For A Soldier - Johnny I Hardly Knew You
TTITLE4=La Llorona
TTITLE5=My Match Was Made
TTITLE6=Lanigan's Ball
TTITLE7=Come On With Me
TTITLE8=Drill Ye Tarriers
TTITLE9=God Rest Ye
EXTD=
EXTT0=
EXTT1=
EXTT2=
EXTT3=
EXTT4=
EXTT5=
EXTT6=
EXTT7=
EXTT8=
EXTT9=
PLAYORDER=
